<?xml version="1.0" encoding="UTF-8" standalone="no"?>
<!DOCTYPE svg PUBLIC "-//W3C//DTD SVG 1.1//EN" "http://www.w3.org/Graphics/SVG/1.1/DTD/svg11.dtd">
<svg xmlns="http://www.w3.org/2000/svg" xmlnsXl="http://www.w3.org/1999/xlink" xmlnsDc="http://purl.org/dc/elements/1.1/" version="1.1" viewBox="284 1 29 29" width="29" height="29">
  <defs/>
  <metadata> Produced by OmniGraffle 7.10.2
    <dcDate>2019-05-03 21:47:08 +0000</dcDate>
  </metadata>
  <g id="Sidebar-Forecast" fill-opacity="1" stroke-opacity="1" stroke-dasharray="none" stroke="none" fill="none">
    <title>Sidebar-Forecast</title>
    <g id="Sidebar-Forecast: Layer 1">
      <title>Layer 1</title>
      <g id="Group_2">
        <g id="Graphic_9">
          <path d="M 286 11 L 291 11 C 292.10457 11 293 11.89543 293 13 L 293 18 C 293 19.10457 292.10457 20 291 20 L 286 20 C 284.89543 20 284 19.10457 284 18 L 284 13 C 284 11.89543 284.89543 11 286 11 Z" fill="#eb4765"/>
        </g>
        <g id="Graphic_8">
          <path d="M 286 21 L 291 21 C 292.10457 21 293 21.89543 293 23 L 293 28 C 293 29.10457 292.10457 30 291 30 L 286 30 C 284.89543 30 284 29.10457 284 28 L 284 23 C 284 21.89543 284.89543 21 286 21 Z" fill="#eb4765"/>
        </g>
        <g id="Graphic_7">
          <path d="M 296 1 L 301 1 C 302.10457 1 303 1.8954305 303 3 L 303 8 C 303 9.10457 302.10457 10 301 10 L 296 10 C 294.89543 10 294 9.10457 294 8 L 294 3 C 294 1.8954305 294.89543 1 296 1 Z" fill="#eb4765"/>
        </g>
        <g id="Graphic_6">
          <path d="M 296 11 L 301 11 C 302.10457 11 303 11.89543 303 13 L 303 18 C 303 19.10457 302.10457 20 301 20 L 296 20 C 294.89543 20 294 19.10457 294 18 L 294 13 C 294 11.89543 294.89543 11 296 11 Z" fill="#eb4765"/>
        </g>
        <g id="Graphic_5">
          <path d="M 296 21 L 301 21 C 302.10457 21 303 21.89543 303 23 L 303 28 C 303 29.10457 302.10457 30 301 30 L 296 30 C 294.89543 30 294 29.10457 294 28 L 294 23 C 294 21.89543 294.89543 21 296 21 Z" fill="#eb4765"/>
        </g>
        <g id="Graphic_4">
          <path d="M 306 1 L 311 1 C 312.10457 1 313 1.8954305 313 3 L 313 8 C 313 9.10457 312.10457 10 311 10 L 306 10 C 304.89543 10 304 9.10457 304 8 L 304 3 C 304 1.8954305 304.89543 1 306 1 Z" fill="#eb4765"/>
        </g>
        <g id="Graphic_3">
          <path d="M 306 11 L 311 11 C 312.10457 11 313 11.89543 313 13 L 313 18 C 313 19.10457 312.10457 20 311 20 L 306 20 C 304.89543 20 304 19.10457 304 18 L 304 13 C 304 11.89543 304.89543 11 306 11 Z" fill="#eb4765"/>
        </g>
      </g>
    </g>
  </g>
</svg>
